<svg version="1.2" xmlns="http://www.w3.org/2000/svg" viewBox="0 0 146 137" width="146" height="137">
	<title>download</title>
	<style>
		.s0 { fill: #0079aa } 
		.s1 { fill: #99c13c } 
	</style>
	<g id="Background">
		<path id="Path 7" class="s0" d="m89.6 67.2c0.6 0.7 8 13 16.3 27.3 8.3 14.3 15.2 26.1 15.1 26.2 0 0.2-22.3 0.3-99 0.3v2.5c0 1.4-0.4 2.5-1 2.5-0.5 0-5.3-2.6-10.5-5.8-5.3-3.1-9.4-5.8-9.3-5.8 0.2-0.1 4.7-2.7 10.1-5.8 5.3-3.1 9.9-5.6 10.2-5.6 0.3 0 0.5 1.1 0.5 5h76l-2.7-4.8c-1.5-2.6-5.3-9.1-14.3-24.2l3.7-6.6c3-5.2 4-6.3 4.9-5.2z"/>
		<path id="Path 8" class="s1" d="m89.3 1c0.4 0 0.7 5.4 0.7 12 0 11-0.1 12-1.7 11.4-1-0.3-2.1-0.6-2.5-0.7-0.4-0.1-9.1 14.1-19.3 31.6-10.2 17.4-18.5 31.9-18.5 32.2 0 0.3 7.4 0.5 33 0.5l3.5 6.5c1.9 3.6 3.3 6.7 3 7-0.3 0.3-14.9 0.4-64.4 0l24.5-42.5c13.4-23.4 24.4-42.8 24.4-43.3 0-0.4-0.8-1.1-1.7-1.6-1-0.5-1.4-1.3-0.9-1.8 0.4-0.4 4.9-3.1 10-6 5-2.9 9.4-5.3 9.9-5.3z"/>
		<path id="Path 9" class="s0" d="m89.3 26c0.5 0 11.8 19.3 25.3 43 23.1 40.7 24.5 43 29.4 42v11.5c0 8.8-0.3 11.4-1.3 11.3-0.7-0.2-5.6-2.8-10.9-5.8-9.3-5.4-9.5-5.5-7.4-7.1 2.1-1.6 2-1.9-16.4-33.3-10.2-17.4-18.8-31.7-19.2-31.6-0.5 0-4.2 6.1-15.8 27h-8c-4.4 0-7.9-0.4-7.7-0.9 0.1-0.5 7.2-13.4 15.7-28.5 8.5-15.1 15.9-27.6 16.3-27.6z"/>
	</g>
</svg>